<svg xmlns="http://www.w3.org/2000/svg" viewBox="0 0 240 240" width="240" height="240">
  <g fill="none" stroke="#000" stroke-width="4" stroke-linecap="round" stroke-linejoin="round">
    <!-- cohete -->
    <g transform="translate(42 34)">
      <path d="M24 0 C40 14 40 40 30 56 L18 56 C8 40 8 14 24 0 Z"/>
      <circle cx="24" cy="24" r="8"/>
      <path d="M18 50 L6 64 L16 58 Z"/>
      <path d="M30 50 L42 64 L32 58 Z"/>
    </g>
    <!-- planeta con anillo -->
    <g transform="translate(150 48)">
      <circle cx="28" cy="28" r="20"/>
      <ellipse cx="28" cy="28" rx="38" ry="11" transform="rotate(-20 28 28)"/>
    </g>
    <!-- estrella -->
    <g transform="translate(44 150)">
      <path d="M28 4 L35 22 L54 22 L39 34 L45 54 L28 42 L11 54 L17 34 L2 22 L21 22 Z"/>
    </g>
    <!-- luna -->
    <g transform="translate(160 156)">
      <path d="M40 4 C20 6 8 22 10 40 C12 56 28 64 44 58 C30 54 22 42 22 30 C22 18 30 8 40 4 Z"/>
    </g>
  </g>
</svg>
