<svg xmlns="http://www.w3.org/2000/svg" viewBox="0 0 240 240" width="240" height="240">
  <g fill="none" stroke="#000" stroke-width="4" stroke-linecap="round" stroke-linejoin="round">
    <!-- pez -->
    <g transform="translate(30 48)">
      <path d="M0 24 C16 4 52 4 68 24 C52 44 16 44 0 24 Z"/>
      <path d="M68 24 L86 10 L82 24 L86 38 Z"/>
      <circle cx="20" cy="20" r="3" fill="#000"/>
    </g>
    <!-- concha (abanico) -->
    <g transform="translate(156 46)">
      <path d="M28 56 C2 56 0 24 28 4 C56 24 54 56 28 56 Z"/>
      <path d="M28 56 L16 16 M28 56 L28 8 M28 56 L40 16"/>
    </g>
    <!-- burbujas -->
    <g transform="translate(46 158)">
      <circle cx="14" cy="42" r="12"/>
      <circle cx="38" cy="22" r="9"/>
      <circle cx="22" cy="8" r="6"/>
    </g>
    <!-- estrella de mar -->
    <g transform="translate(150 152)">
      <path d="M30 4 L40 24 L60 27 L45 42 L49 62 L30 52 L11 62 L15 42 L0 27 L20 24 Z"/>
    </g>
  </g>
</svg>
